<svg width="250" height="207" viewBox="0 0 250 207" fill="none" xmlns="http://www.w3.org/2000/svg">
<g filter="url(#filter0_d_2_473)">
<rect x="22" y="22" width="206" height="163" rx="8" fill="white"/>
</g>
<rect x="37" y="36" width="105" height="18" rx="9" fill="#BEE1E6"/>
<path d="M59.6825 41.08V49H58.7705V44.02L58.8785 41.932H58.8665L56.2625 49H55.4465L52.8425 41.932H52.8305L52.9385 44.02V49H52.0265V41.08H53.5025L55.2425 45.892L55.8425 47.872H55.8665L56.4785 45.904L58.2065 41.08H59.6825ZM65.5223 45.124C65.5223 44.676 65.4023 44.332 65.1623 44.092C64.9223 43.844 64.5823 43.72 64.1423 43.72C63.7263 43.72 63.3743 43.812 63.0863 43.996C62.7983 44.172 62.5863 44.46 62.4503 44.86L61.6703 44.38C61.8303 43.932 62.1263 43.572 62.5583 43.3C62.9903 43.02 63.5263 42.88 64.1663 42.88C64.5983 42.88 64.9903 42.956 65.3423 43.108C65.6943 43.252 65.9703 43.476 66.1703 43.78C66.3783 44.076 66.4823 44.46 66.4823 44.932V47.836C66.4823 48.124 66.6343 48.268 66.9383 48.268C67.0903 48.268 67.2383 48.248 67.3823 48.208L67.3343 48.964C67.1743 49.044 66.9663 49.084 66.7103 49.084C66.4783 49.084 66.2703 49.04 66.0863 48.952C65.9023 48.864 65.7583 48.732 65.6543 48.556C65.5503 48.372 65.4983 48.144 65.4983 47.872V47.752L65.7383 47.788C65.6423 48.1 65.4783 48.356 65.2463 48.556C65.0143 48.748 64.7543 48.892 64.4663 48.988C64.1783 49.076 63.8943 49.12 63.6143 49.12C63.2623 49.12 62.9343 49.06 62.6303 48.94C62.3263 48.82 62.0823 48.64 61.8983 48.4C61.7223 48.152 61.6343 47.848 61.6343 47.488C61.6343 47.04 61.7823 46.672 62.0783 46.384C62.3823 46.088 62.8023 45.888 63.3383 45.784L65.7143 45.316V46.108L63.7823 46.504C63.3903 46.584 63.0983 46.696 62.9063 46.84C62.7143 46.984 62.6183 47.184 62.6183 47.44C62.6183 47.688 62.7143 47.892 62.9063 48.052C63.1063 48.204 63.3863 48.28 63.7463 48.28C63.9783 48.28 64.1983 48.252 64.4063 48.196C64.6223 48.132 64.8143 48.04 64.9823 47.92C65.1503 47.792 65.2823 47.636 65.3783 47.452C65.4743 47.26 65.5223 47.036 65.5223 46.78V45.124ZM68.8152 49V43H69.5952L69.7272 43.984C69.8952 43.616 70.1392 43.34 70.4592 43.156C70.7872 42.972 71.1832 42.88 71.6472 42.88C71.7512 42.88 71.8632 42.888 71.9832 42.904C72.1112 42.92 72.2192 42.952 72.3072 43L72.1392 43.876C72.0512 43.844 71.9552 43.82 71.8512 43.804C71.7472 43.788 71.5992 43.78 71.4072 43.78C71.1592 43.78 70.9072 43.852 70.6512 43.996C70.4032 44.14 70.1952 44.36 70.0272 44.656C69.8592 44.944 69.7752 45.312 69.7752 45.76V49H68.8152ZM78.9817 43L76.3897 45.592L76.1617 45.82L74.1937 47.788V46.588L77.7697 43H78.9817ZM74.6737 40.24V49H73.7137V40.24H74.6737ZM76.4737 45.1L79.1257 49H77.9617L75.6697 45.64L76.4737 45.1ZM82.8193 49.12C82.2513 49.12 81.7433 48.996 81.2953 48.748C80.8553 48.5 80.5113 48.144 80.2633 47.68C80.0153 47.208 79.8913 46.648 79.8913 46C79.8913 45.352 80.0153 44.796 80.2633 44.332C80.5113 43.86 80.8513 43.5 81.2833 43.252C81.7153 43.004 82.2073 42.88 82.7593 42.88C83.3193 42.88 83.7953 43 84.1873 43.24C84.5873 43.48 84.8913 43.808 85.0993 44.224C85.3073 44.632 85.4113 45.092 85.4113 45.604C85.4113 45.74 85.4073 45.864 85.3993 45.976C85.3913 46.088 85.3793 46.188 85.3633 46.276H80.5153V45.424H84.9433L84.4513 45.52C84.4513 44.944 84.2913 44.5 83.9713 44.188C83.6593 43.876 83.2473 43.72 82.7353 43.72C82.3433 43.72 82.0033 43.812 81.7153 43.996C81.4353 44.172 81.2153 44.432 81.0553 44.776C80.9033 45.112 80.8273 45.52 80.8273 46C80.8273 46.472 80.9073 46.88 81.0673 47.224C81.2273 47.568 81.4513 47.832 81.7393 48.016C82.0353 48.192 82.3873 48.28 82.7953 48.28C83.2353 48.28 83.5913 48.196 83.8633 48.028C84.1433 47.86 84.3673 47.632 84.5353 47.344L85.2913 47.788C85.1393 48.06 84.9433 48.296 84.7033 48.496C84.4713 48.696 84.1953 48.852 83.8753 48.964C83.5633 49.068 83.2113 49.12 82.8193 49.12ZM88.4773 41.296V47.344C88.4773 47.64 88.5613 47.86 88.7293 48.004C88.8973 48.148 89.1133 48.22 89.3773 48.22C89.6093 48.22 89.8093 48.18 89.9773 48.1C90.1453 48.02 90.2973 47.912 90.4333 47.776L90.7693 48.58C90.5853 48.748 90.3653 48.88 90.1093 48.976C89.8613 49.072 89.5733 49.12 89.2453 49.12C88.9413 49.12 88.6573 49.068 88.3933 48.964C88.1293 48.852 87.9173 48.68 87.7573 48.448C87.6053 48.208 87.5253 47.896 87.5173 47.512V41.56L88.4773 41.296ZM90.6613 43V43.828H86.3173V43H90.6613ZM98.9025 40.96C99.5985 40.96 100.199 41.104 100.703 41.392C101.207 41.672 101.627 42.088 101.963 42.64L101.159 43.264C100.863 42.752 100.527 42.392 100.151 42.184C99.7825 41.968 99.3345 41.86 98.8065 41.86C98.3825 41.86 98.0305 41.92 97.7505 42.04C97.4785 42.16 97.2785 42.32 97.1505 42.52C97.0225 42.712 96.9585 42.932 96.9585 43.18C96.9585 43.46 97.0465 43.708 97.2225 43.924C97.3985 44.132 97.7505 44.296 98.2785 44.416L99.9945 44.8C100.755 44.968 101.283 45.224 101.579 45.568C101.883 45.904 102.035 46.324 102.035 46.828C102.035 47.276 101.907 47.676 101.651 48.028C101.403 48.372 101.051 48.64 100.595 48.832C100.139 49.024 99.6025 49.12 98.9865 49.12C98.4105 49.12 97.9025 49.044 97.4625 48.892C97.0305 48.732 96.6585 48.52 96.3465 48.256C96.0345 47.992 95.7785 47.696 95.5785 47.368L96.4185 46.684C96.5705 46.988 96.7665 47.256 97.0065 47.488C97.2465 47.72 97.5345 47.9 97.8705 48.028C98.2145 48.156 98.6065 48.22 99.0465 48.22C99.4545 48.22 99.8065 48.172 100.103 48.076C100.407 47.972 100.639 47.824 100.799 47.632C100.959 47.432 101.039 47.192 101.039 46.912C101.039 46.656 100.955 46.428 100.787 46.228C100.619 46.02 100.303 45.864 99.8385 45.76L97.9785 45.34C97.4905 45.228 97.0945 45.076 96.7905 44.884C96.4945 44.684 96.2785 44.452 96.1425 44.188C96.0145 43.916 95.9505 43.624 95.9505 43.312C95.9505 42.888 96.0665 42.5 96.2985 42.148C96.5385 41.788 96.8785 41.5 97.3185 41.284C97.7665 41.068 98.2945 40.96 98.9025 40.96ZM105.282 41.296V47.344C105.282 47.64 105.366 47.86 105.534 48.004C105.702 48.148 105.918 48.22 106.182 48.22C106.414 48.22 106.614 48.18 106.782 48.1C106.95 48.02 107.102 47.912 107.238 47.776L107.574 48.58C107.39 48.748 107.17 48.88 106.914 48.976C106.666 49.072 106.378 49.12 106.05 49.12C105.746 49.12 105.462 49.068 105.198 48.964C104.934 48.852 104.722 48.68 104.562 48.448C104.41 48.208 104.33 47.896 104.322 47.512V41.56L105.282 41.296ZM107.466 43V43.828H103.122V43H107.466ZM112.397 45.124C112.397 44.676 112.277 44.332 112.037 44.092C111.797 43.844 111.457 43.72 111.017 43.72C110.601 43.72 110.249 43.812 109.961 43.996C109.673 44.172 109.461 44.46 109.325 44.86L108.545 44.38C108.705 43.932 109.001 43.572 109.433 43.3C109.865 43.02 110.401 42.88 111.041 42.88C111.473 42.88 111.865 42.956 112.217 43.108C112.569 43.252 112.845 43.476 113.045 43.78C113.253 44.076 113.357 44.46 113.357 44.932V47.836C113.357 48.124 113.509 48.268 113.813 48.268C113.965 48.268 114.113 48.248 114.257 48.208L114.209 48.964C114.049 49.044 113.841 49.084 113.585 49.084C113.353 49.084 113.145 49.04 112.961 48.952C112.777 48.864 112.633 48.732 112.529 48.556C112.425 48.372 112.373 48.144 112.373 47.872V47.752L112.613 47.788C112.517 48.1 112.353 48.356 112.121 48.556C111.889 48.748 111.629 48.892 111.341 48.988C111.053 49.076 110.769 49.12 110.489 49.12C110.137 49.12 109.809 49.06 109.505 48.94C109.201 48.82 108.957 48.64 108.773 48.4C108.597 48.152 108.509 47.848 108.509 47.488C108.509 47.04 108.657 46.672 108.953 46.384C109.257 46.088 109.677 45.888 110.213 45.784L112.589 45.316V46.108L110.657 46.504C110.265 46.584 109.973 46.696 109.781 46.84C109.589 46.984 109.493 47.184 109.493 47.44C109.493 47.688 109.589 47.892 109.781 48.052C109.981 48.204 110.261 48.28 110.621 48.28C110.853 48.28 111.073 48.252 111.281 48.196C111.497 48.132 111.689 48.04 111.857 47.92C112.025 47.792 112.157 47.636 112.253 47.452C112.349 47.26 112.397 47.036 112.397 46.78V45.124ZM116.872 41.296V47.344C116.872 47.64 116.956 47.86 117.124 48.004C117.292 48.148 117.508 48.22 117.772 48.22C118.004 48.22 118.204 48.18 118.372 48.1C118.54 48.02 118.692 47.912 118.828 47.776L119.164 48.58C118.98 48.748 118.76 48.88 118.504 48.976C118.256 49.072 117.968 49.12 117.64 49.12C117.336 49.12 117.052 49.068 116.788 48.964C116.524 48.852 116.312 48.68 116.152 48.448C116 48.208 115.92 47.896 115.912 47.512V41.56L116.872 41.296ZM119.056 43V43.828H114.712V43H119.056ZM120.963 41.848C120.747 41.848 120.571 41.784 120.435 41.656C120.307 41.52 120.243 41.344 120.243 41.128C120.243 40.912 120.307 40.74 120.435 40.612C120.571 40.476 120.747 40.408 120.963 40.408C121.179 40.408 121.351 40.476 121.479 40.612C121.615 40.74 121.683 40.912 121.683 41.128C121.683 41.344 121.615 41.52 121.479 41.656C121.351 41.784 121.179 41.848 120.963 41.848ZM121.443 43V49H120.483V43H121.443ZM126.155 42.88C126.571 42.88 126.935 42.944 127.247 43.072C127.567 43.2 127.843 43.384 128.075 43.624C128.307 43.864 128.495 44.148 128.639 44.476L127.727 44.908C127.599 44.524 127.403 44.232 127.139 44.032C126.883 43.824 126.547 43.72 126.131 43.72C125.731 43.72 125.387 43.812 125.099 43.996C124.811 44.172 124.591 44.432 124.439 44.776C124.287 45.112 124.211 45.52 124.211 46C124.211 46.472 124.287 46.88 124.439 47.224C124.591 47.568 124.811 47.832 125.099 48.016C125.387 48.192 125.731 48.28 126.131 48.28C126.443 48.28 126.711 48.232 126.935 48.136C127.167 48.04 127.355 47.9 127.499 47.716C127.651 47.532 127.755 47.308 127.811 47.044L128.699 47.356C128.563 47.724 128.375 48.04 128.135 48.304C127.903 48.568 127.619 48.772 127.283 48.916C126.955 49.052 126.579 49.12 126.155 49.12C125.595 49.12 125.095 48.996 124.655 48.748C124.215 48.5 123.871 48.144 123.623 47.68C123.375 47.208 123.251 46.648 123.251 46C123.251 45.352 123.375 44.796 123.623 44.332C123.871 43.86 124.215 43.5 124.655 43.252C125.095 43.004 125.595 42.88 126.155 42.88Z" fill="#006D77"/>
<circle cx="45.5" cy="45.5" r="2.5" fill="#006D77"/>
<path d="M37 128.702C48.6249 130.181 52 126.031 53.3636 118.686C61.5455 104.664 83.3636 103.329 91.5455 110.006C105.182 127.367 111.318 130.705 120.182 112.009C133.907 93.028 137.899 92.6137 144.727 101.993C154.086 108.131 156.245 110.271 157.682 118.019C159.727 122.025 164.309 120.708 165.864 114.68C182 89.9993 190 88 205 101.993" stroke="#101828" stroke-width="2" stroke-linecap="round"/>
<circle cx="154.5" cy="109.5" r="3.85" fill="white" stroke="#006D77" stroke-width="1.3"/>
<rect x="165" y="156" width="26" height="13" rx="6.5" fill="#AFEAE4"/>
<path d="M42.0895 159.4V163.74C42.0895 164.48 41.8895 165.06 41.4895 165.48C41.0961 165.893 40.5495 166.1 39.8495 166.1C39.3561 166.1 38.9495 166.007 38.6295 165.82C38.3095 165.633 38.0861 165.37 37.9595 165.03C37.8395 164.683 37.8228 164.28 37.9095 163.82L38.6495 163.67C38.5761 164.237 38.6261 164.66 38.7995 164.94C38.9795 165.213 39.3195 165.35 39.8195 165.35C40.3861 165.35 40.7728 165.197 40.9795 164.89C41.1861 164.577 41.2895 164.127 41.2895 163.54V159.4H42.0895ZM46.8777 162.77C46.8777 162.397 46.7777 162.11 46.5777 161.91C46.3777 161.703 46.0944 161.6 45.7277 161.6C45.3811 161.6 45.0877 161.677 44.8477 161.83C44.6077 161.977 44.4311 162.217 44.3177 162.55L43.6677 162.15C43.8011 161.777 44.0477 161.477 44.4077 161.25C44.7677 161.017 45.2144 160.9 45.7477 160.9C46.1077 160.9 46.4344 160.963 46.7277 161.09C47.0211 161.21 47.2511 161.397 47.4177 161.65C47.5911 161.897 47.6777 162.217 47.6777 162.61V165.03C47.6777 165.27 47.8044 165.39 48.0577 165.39C48.1844 165.39 48.3077 165.373 48.4277 165.34L48.3877 165.97C48.2544 166.037 48.0811 166.07 47.8677 166.07C47.6744 166.07 47.5011 166.033 47.3477 165.96C47.1944 165.887 47.0744 165.777 46.9877 165.63C46.9011 165.477 46.8577 165.287 46.8577 165.06V164.96L47.0577 164.99C46.9777 165.25 46.8411 165.463 46.6477 165.63C46.4544 165.79 46.2377 165.91 45.9977 165.99C45.7577 166.063 45.5211 166.1 45.2877 166.1C44.9944 166.1 44.7211 166.05 44.4677 165.95C44.2144 165.85 44.0111 165.7 43.8577 165.5C43.7111 165.293 43.6377 165.04 43.6377 164.74C43.6377 164.367 43.7611 164.06 44.0077 163.82C44.2611 163.573 44.6111 163.407 45.0577 163.32L47.0377 162.93V163.59L45.4277 163.92C45.1011 163.987 44.8577 164.08 44.6977 164.2C44.5377 164.32 44.4577 164.487 44.4577 164.7C44.4577 164.907 44.5377 165.077 44.6977 165.21C44.8644 165.337 45.0977 165.4 45.3977 165.4C45.5911 165.4 45.7744 165.377 45.9477 165.33C46.1277 165.277 46.2877 165.2 46.4277 165.1C46.5677 164.993 46.6777 164.863 46.7577 164.71C46.8377 164.55 46.8777 164.363 46.8777 164.15V162.77ZM49.7218 166V161H50.4218L50.4918 162.12L50.3618 162.01C50.4685 161.743 50.6118 161.53 50.7918 161.37C50.9718 161.203 51.1785 161.083 51.4118 161.01C51.6518 160.937 51.8985 160.9 52.1518 160.9C52.5118 160.9 52.8385 160.97 53.1318 161.11C53.4251 161.243 53.6585 161.45 53.8318 161.73C54.0118 162.01 54.1018 162.367 54.1018 162.8V166H53.3018V163.08C53.3018 162.527 53.1818 162.143 52.9418 161.93C52.7085 161.71 52.4185 161.6 52.0718 161.6C51.8318 161.6 51.5918 161.657 51.3518 161.77C51.1118 161.883 50.9118 162.067 50.7518 162.32C50.5985 162.573 50.5218 162.913 50.5218 163.34V166H49.7218ZM71.3078 160.15H67.4878V162.28H70.4678V163.03H67.4878V166H66.6878V159.4H71.3078V160.15ZM74.2845 166.1C73.8111 166.1 73.3878 165.997 73.0145 165.79C72.6478 165.583 72.3611 165.287 72.1545 164.9C71.9478 164.507 71.8445 164.04 71.8445 163.5C71.8445 162.96 71.9478 162.497 72.1545 162.11C72.3611 161.717 72.6445 161.417 73.0045 161.21C73.3645 161.003 73.7745 160.9 74.2345 160.9C74.7011 160.9 75.0978 161 75.4245 161.2C75.7578 161.4 76.0111 161.673 76.1845 162.02C76.3578 162.36 76.4445 162.743 76.4445 163.17C76.4445 163.283 76.4411 163.387 76.4345 163.48C76.4278 163.573 76.4178 163.657 76.4045 163.73H72.3645V163.02H76.0545L75.6445 163.1C75.6445 162.62 75.5111 162.25 75.2445 161.99C74.9845 161.73 74.6411 161.6 74.2145 161.6C73.8878 161.6 73.6045 161.677 73.3645 161.83C73.1311 161.977 72.9478 162.193 72.8145 162.48C72.6878 162.76 72.6245 163.1 72.6245 163.5C72.6245 163.893 72.6911 164.233 72.8245 164.52C72.9578 164.807 73.1445 165.027 73.3845 165.18C73.6311 165.327 73.9245 165.4 74.2645 165.4C74.6311 165.4 74.9278 165.33 75.1545 165.19C75.3878 165.05 75.5745 164.86 75.7145 164.62L76.3445 164.99C76.2178 165.217 76.0545 165.413 75.8545 165.58C75.6611 165.747 75.4311 165.877 75.1645 165.97C74.9045 166.057 74.6111 166.1 74.2845 166.1ZM80.5159 166.1C80.2359 166.1 79.9759 166.05 79.7359 165.95C79.4959 165.85 79.2893 165.71 79.1159 165.53C78.9426 165.35 78.8126 165.147 78.7259 164.92L78.8359 164.78L78.7659 166H78.0659V158.7H78.8659V162.13L78.7659 161.98C78.8993 161.667 79.1226 161.41 79.4359 161.21C79.7559 161.003 80.1193 160.9 80.5259 160.9C80.9393 160.9 81.3193 161.003 81.6659 161.21C82.0126 161.417 82.2893 161.713 82.4959 162.1C82.7026 162.487 82.8059 162.953 82.8059 163.5C82.8059 164.04 82.6993 164.507 82.4859 164.9C82.2793 165.287 82.0026 165.583 81.6559 165.79C81.3093 165.997 80.9293 166.1 80.5159 166.1ZM80.4359 165.4C80.9293 165.4 81.3126 165.227 81.5859 164.88C81.8659 164.533 82.0059 164.073 82.0059 163.5C82.0059 162.927 81.8693 162.467 81.5959 162.12C81.3226 161.773 80.9393 161.6 80.4459 161.6C80.1326 161.6 79.8559 161.68 79.6159 161.84C79.3826 162 79.1993 162.223 79.0659 162.51C78.9326 162.797 78.8659 163.133 78.8659 163.52C78.8659 163.9 78.9293 164.233 79.0559 164.52C79.1893 164.8 79.3726 165.017 79.6059 165.17C79.8459 165.323 80.1226 165.4 80.4359 165.4ZM97.9819 159.4V166H97.2219V161.85L97.3119 160.11H97.3019L95.1319 166H94.4519L92.2819 160.11H92.2719L92.3619 161.85V166H91.6019V159.4H92.8319L94.2819 163.41L94.7819 165.06H94.8019L95.3119 163.42L96.7519 159.4H97.9819ZM102.948 162.77C102.948 162.397 102.848 162.11 102.648 161.91C102.448 161.703 102.165 161.6 101.798 161.6C101.452 161.6 101.158 161.677 100.918 161.83C100.678 161.977 100.502 162.217 100.388 162.55L99.7384 162.15C99.8718 161.777 100.118 161.477 100.478 161.25C100.838 161.017 101.285 160.9 101.818 160.9C102.178 160.9 102.505 160.963 102.798 161.09C103.092 161.21 103.322 161.397 103.488 161.65C103.662 161.897 103.748 162.217 103.748 162.61V165.03C103.748 165.27 103.875 165.39 104.128 165.39C104.255 165.39 104.378 165.373 104.498 165.34L104.458 165.97C104.325 166.037 104.152 166.07 103.938 166.07C103.745 166.07 103.572 166.033 103.418 165.96C103.265 165.887 103.145 165.777 103.058 165.63C102.972 165.477 102.928 165.287 102.928 165.06V164.96L103.128 164.99C103.048 165.25 102.912 165.463 102.718 165.63C102.525 165.79 102.308 165.91 102.068 165.99C101.828 166.063 101.592 166.1 101.358 166.1C101.065 166.1 100.792 166.05 100.538 165.95C100.285 165.85 100.082 165.7 99.9284 165.5C99.7818 165.293 99.7084 165.04 99.7084 164.74C99.7084 164.367 99.8318 164.06 100.078 163.82C100.332 163.573 100.682 163.407 101.128 163.32L103.108 162.93V163.59L101.498 163.92C101.172 163.987 100.928 164.08 100.768 164.2C100.608 164.32 100.528 164.487 100.528 164.7C100.528 164.907 100.608 165.077 100.768 165.21C100.935 165.337 101.168 165.4 101.468 165.4C101.662 165.4 101.845 165.377 102.018 165.33C102.198 165.277 102.358 165.2 102.498 165.1C102.638 164.993 102.748 164.863 102.828 164.71C102.908 164.55 102.948 164.363 102.948 164.15V162.77ZM105.793 166V161H106.443L106.553 161.82C106.693 161.513 106.896 161.283 107.163 161.13C107.436 160.977 107.766 160.9 108.153 160.9C108.239 160.9 108.333 160.907 108.433 160.92C108.539 160.933 108.629 160.96 108.703 161L108.563 161.73C108.489 161.703 108.409 161.683 108.323 161.67C108.236 161.657 108.113 161.65 107.953 161.65C107.746 161.65 107.536 161.71 107.323 161.83C107.116 161.95 106.943 162.133 106.803 162.38C106.663 162.62 106.593 162.927 106.593 163.3V166H105.793ZM121.766 166H120.916L120.216 164.17H117.226L116.526 166H115.686L118.256 159.4H119.206L121.766 166ZM117.516 163.42H119.926L118.716 160.17L117.516 163.42ZM123.058 168.1V161H123.758L123.828 162.22L123.718 162.08C123.804 161.847 123.934 161.643 124.108 161.47C124.281 161.29 124.491 161.15 124.738 161.05C124.984 160.95 125.251 160.9 125.538 160.9C125.944 160.9 126.318 161.003 126.658 161.21C127.004 161.417 127.281 161.713 127.488 162.1C127.694 162.487 127.798 162.953 127.798 163.5C127.798 164.04 127.691 164.507 127.478 164.9C127.271 165.287 126.994 165.583 126.648 165.79C126.301 165.997 125.921 166.1 125.508 166.1C125.094 166.1 124.731 166 124.418 165.8C124.111 165.593 123.891 165.333 123.758 165.02L123.858 164.87V168.1H123.058ZM125.428 165.4C125.921 165.4 126.304 165.227 126.578 164.88C126.858 164.533 126.998 164.073 126.998 163.5C126.998 162.927 126.861 162.467 126.588 162.12C126.321 161.773 125.944 161.6 125.458 161.6C125.138 161.6 124.858 161.68 124.618 161.84C124.378 161.993 124.191 162.213 124.058 162.5C123.924 162.78 123.858 163.113 123.858 163.5C123.858 163.88 123.921 164.213 124.048 164.5C124.181 164.787 124.364 165.01 124.598 165.17C124.838 165.323 125.114 165.4 125.428 165.4ZM129.427 166V161H130.077L130.187 161.82C130.327 161.513 130.531 161.283 130.797 161.13C131.071 160.977 131.401 160.9 131.787 160.9C131.874 160.9 131.967 160.907 132.067 160.92C132.174 160.933 132.264 160.96 132.337 161L132.197 161.73C132.124 161.703 132.044 161.683 131.957 161.67C131.871 161.657 131.747 161.65 131.587 161.65C131.381 161.65 131.171 161.71 130.957 161.83C130.751 161.95 130.577 162.133 130.437 162.38C130.297 162.62 130.227 162.927 130.227 163.3V166H129.427ZM146.921 159.4V166H146.161V161.85L146.251 160.11H146.241L144.071 166H143.391L141.221 160.11H141.211L141.301 161.85V166H140.541V159.4H141.771L143.221 163.41L143.721 165.06H143.741L144.251 163.42L145.691 159.4H146.921ZM151.888 162.77C151.888 162.397 151.788 162.11 151.588 161.91C151.388 161.703 151.105 161.6 150.738 161.6C150.391 161.6 150.098 161.677 149.858 161.83C149.618 161.977 149.441 162.217 149.328 162.55L148.678 162.15C148.811 161.777 149.058 161.477 149.418 161.25C149.778 161.017 150.225 160.9 150.758 160.9C151.118 160.9 151.445 160.963 151.738 161.09C152.031 161.21 152.261 161.397 152.428 161.65C152.601 161.897 152.688 162.217 152.688 162.61V165.03C152.688 165.27 152.815 165.39 153.068 165.39C153.195 165.39 153.318 165.373 153.438 165.34L153.398 165.97C153.265 166.037 153.091 166.07 152.878 166.07C152.685 166.07 152.511 166.033 152.358 165.96C152.205 165.887 152.085 165.777 151.998 165.63C151.911 165.477 151.868 165.287 151.868 165.06V164.96L152.068 164.99C151.988 165.25 151.851 165.463 151.658 165.63C151.465 165.79 151.248 165.91 151.008 165.99C150.768 166.063 150.531 166.1 150.298 166.1C150.005 166.1 149.731 166.05 149.478 165.95C149.225 165.85 149.021 165.7 148.868 165.5C148.721 165.293 148.648 165.04 148.648 164.74C148.648 164.367 148.771 164.06 149.018 163.82C149.271 163.573 149.621 163.407 150.068 163.32L152.048 162.93V163.59L150.438 163.92C150.111 163.987 149.868 164.08 149.708 164.2C149.548 164.32 149.468 164.487 149.468 164.7C149.468 164.907 149.548 165.077 149.708 165.21C149.875 165.337 150.108 165.4 150.408 165.4C150.601 165.4 150.785 165.377 150.958 165.33C151.138 165.277 151.298 165.2 151.438 165.1C151.578 164.993 151.688 164.863 151.768 164.71C151.848 164.55 151.888 164.363 151.888 164.15V162.77ZM158.549 161L156.199 166.84C156.072 167.167 155.932 167.423 155.779 167.61C155.632 167.803 155.466 167.94 155.279 168.02C155.099 168.107 154.889 168.15 154.649 168.15C154.422 168.15 154.212 168.117 154.019 168.05C153.832 167.99 153.666 167.907 153.519 167.8L153.739 167.1C153.872 167.22 154.012 167.307 154.159 167.36C154.312 167.42 154.462 167.45 154.609 167.45C154.782 167.45 154.946 167.397 155.099 167.29C155.252 167.183 155.392 166.967 155.519 166.64L155.779 165.99L155.279 164.8L153.689 161H154.599L155.849 164.26L156.159 165.15L156.519 164.16L157.689 161H158.549ZM202.206 159.4V163.74C202.206 164.48 202.006 165.06 201.606 165.48C201.213 165.893 200.666 166.1 199.966 166.1C199.473 166.1 199.066 166.007 198.746 165.82C198.426 165.633 198.203 165.37 198.076 165.03C197.956 164.683 197.939 164.28 198.026 163.82L198.766 163.67C198.693 164.237 198.743 164.66 198.916 164.94C199.096 165.213 199.436 165.35 199.936 165.35C200.503 165.35 200.889 165.197 201.096 164.89C201.303 164.577 201.406 164.127 201.406 163.54V159.4H202.206ZM205.972 166.1C205.652 166.1 205.349 166.04 205.062 165.92C204.782 165.8 204.552 165.607 204.372 165.34C204.199 165.067 204.112 164.713 204.112 164.28V161H204.912V164.07C204.912 164.577 205.022 164.927 205.242 165.12C205.462 165.307 205.772 165.4 206.172 165.4C206.359 165.4 206.542 165.37 206.722 165.31C206.902 165.243 207.062 165.143 207.202 165.01C207.349 164.87 207.462 164.693 207.542 164.48C207.629 164.267 207.672 164.013 207.672 163.72V161H208.472V166H207.772L207.722 165.24C207.549 165.54 207.312 165.76 207.012 165.9C206.719 166.033 206.372 166.1 205.972 166.1ZM211.194 158.7V164.73C211.194 164.983 211.241 165.16 211.334 165.26C211.427 165.353 211.577 165.4 211.784 165.4C211.917 165.4 212.027 165.39 212.114 165.37C212.201 165.35 212.317 165.313 212.464 165.26L212.334 165.96C212.227 166.007 212.111 166.04 211.984 166.06C211.857 166.087 211.727 166.1 211.594 166.1C211.187 166.1 210.884 165.99 210.684 165.77C210.491 165.55 210.394 165.213 210.394 164.76V158.7H211.194Z" fill="#6D7589"/>
<path d="M173.686 159.4V163.74C173.686 164.48 173.486 165.06 173.086 165.48C172.693 165.893 172.146 166.1 171.446 166.1C170.953 166.1 170.546 166.007 170.226 165.82C169.906 165.633 169.683 165.37 169.556 165.03C169.436 164.683 169.419 164.28 169.506 163.82L170.246 163.67C170.173 164.237 170.223 164.66 170.396 164.94C170.576 165.213 170.916 165.35 171.416 165.35C171.983 165.35 172.369 165.197 172.576 164.89C172.783 164.577 172.886 164.127 172.886 163.54V159.4H173.686ZM177.452 166.1C177.132 166.1 176.829 166.04 176.542 165.92C176.262 165.8 176.032 165.607 175.852 165.34C175.679 165.067 175.592 164.713 175.592 164.28V161H176.392V164.07C176.392 164.577 176.502 164.927 176.722 165.12C176.942 165.307 177.252 165.4 177.652 165.4C177.839 165.4 178.022 165.37 178.202 165.31C178.382 165.243 178.542 165.143 178.682 165.01C178.829 164.87 178.942 164.693 179.022 164.48C179.109 164.267 179.152 164.013 179.152 163.72V161H179.952V166H179.252L179.202 165.24C179.029 165.54 178.792 165.76 178.492 165.9C178.199 166.033 177.852 166.1 177.452 166.1ZM181.914 166V161H182.614L182.684 162.12L182.554 162.01C182.661 161.743 182.804 161.53 182.984 161.37C183.164 161.203 183.371 161.083 183.604 161.01C183.844 160.937 184.091 160.9 184.344 160.9C184.704 160.9 185.031 160.97 185.324 161.11C185.617 161.243 185.851 161.45 186.024 161.73C186.204 162.01 186.294 162.367 186.294 162.8V166H185.494V163.08C185.494 162.527 185.374 162.143 185.134 161.93C184.901 161.71 184.611 161.6 184.264 161.6C184.024 161.6 183.784 161.657 183.544 161.77C183.304 161.883 183.104 162.067 182.944 162.32C182.791 162.573 182.714 162.913 182.714 163.34V166H181.914Z" fill="#101828"/>
<path d="M44.74 71.9C44.58 72.38 44.34 72.788 44.02 73.124C43.7 73.452 43.324 73.7 42.892 73.868C42.46 74.036 41.984 74.12 41.464 74.12C40.704 74.12 40.044 73.956 39.484 73.628C38.924 73.3 38.492 72.832 38.188 72.224C37.884 71.616 37.732 70.888 37.732 70.04C37.732 69.192 37.884 68.464 38.188 67.856C38.492 67.248 38.924 66.78 39.484 66.452C40.044 66.124 40.7 65.96 41.452 65.96C41.972 65.96 42.44 66.032 42.856 66.176C43.28 66.32 43.64 66.536 43.936 66.824C44.232 67.112 44.46 67.472 44.62 67.904L43.408 68.444C43.248 67.972 43.016 67.628 42.712 67.412C42.408 67.188 42.012 67.076 41.524 67.076C41.036 67.076 40.608 67.192 40.24 67.424C39.872 67.656 39.584 67.992 39.376 68.432C39.176 68.872 39.076 69.408 39.076 70.04C39.076 70.664 39.172 71.2 39.364 71.648C39.556 72.088 39.832 72.424 40.192 72.656C40.552 72.888 40.984 73.004 41.488 73.004C41.976 73.004 42.396 72.88 42.748 72.632C43.108 72.376 43.364 71.996 43.516 71.492L44.74 71.9ZM48.8031 67.88C49.3871 67.88 49.9031 68.004 50.3511 68.252C50.7991 68.5 51.1471 68.86 51.3951 69.332C51.6511 69.796 51.7791 70.352 51.7791 71C51.7791 71.648 51.6511 72.208 51.3951 72.68C51.1471 73.144 50.7991 73.5 50.3511 73.748C49.9031 73.996 49.3871 74.12 48.8031 74.12C48.2191 74.12 47.7031 73.996 47.2551 73.748C46.8071 73.5 46.4551 73.144 46.1991 72.68C45.9431 72.208 45.8151 71.648 45.8151 71C45.8151 70.352 45.9431 69.796 46.1991 69.332C46.4551 68.86 46.8071 68.5 47.2551 68.252C47.7031 68.004 48.2191 67.88 48.8031 67.88ZM48.8031 68.888C48.4431 68.888 48.1351 68.972 47.8791 69.14C47.6311 69.3 47.4391 69.536 47.3031 69.848C47.1671 70.16 47.0991 70.544 47.0991 71C47.0991 71.448 47.1671 71.832 47.3031 72.152C47.4391 72.464 47.6311 72.704 47.8791 72.872C48.1351 73.032 48.4431 73.112 48.8031 73.112C49.1631 73.112 49.4671 73.032 49.7151 72.872C49.9631 72.704 50.1551 72.464 50.2911 72.152C50.4271 71.832 50.4951 71.448 50.4951 71C50.4951 70.544 50.4271 70.16 50.2911 69.848C50.1551 69.536 49.9631 69.3 49.7151 69.14C49.4671 68.972 49.1631 68.888 48.8031 68.888ZM55.5304 74.12C55.1384 74.12 54.7744 74.048 54.4384 73.904C54.1104 73.76 53.8464 73.528 53.6464 73.208C53.4464 72.888 53.3464 72.472 53.3464 71.96V68H54.6304V71.636C54.6304 72.18 54.7464 72.556 54.9784 72.764C55.2104 72.964 55.5344 73.064 55.9504 73.064C56.1504 73.064 56.3424 73.032 56.5264 72.968C56.7184 72.896 56.8904 72.788 57.0424 72.644C57.1944 72.492 57.3104 72.3 57.3904 72.068C57.4784 71.836 57.5224 71.564 57.5224 71.252V68H58.8064V74H57.6784L57.6184 73.028C57.4104 73.404 57.1304 73.68 56.7784 73.856C56.4264 74.032 56.0104 74.12 55.5304 74.12ZM60.8124 74V68H61.9044L62.0244 69.08C62.1844 68.688 62.4204 68.392 62.7324 68.192C63.0524 67.984 63.4444 67.88 63.9084 67.88C64.0284 67.88 64.1484 67.892 64.2684 67.916C64.3884 67.932 64.4884 67.96 64.5684 68L64.3884 69.128C64.3004 69.096 64.2004 69.072 64.0884 69.056C63.9844 69.032 63.8404 69.02 63.6564 69.02C63.4084 69.02 63.1644 69.088 62.9244 69.224C62.6844 69.352 62.4844 69.548 62.3244 69.812C62.1724 70.076 62.0964 70.412 62.0964 70.82V74H60.8124ZM67.8502 74.12C67.2502 74.12 66.7022 74.004 66.2062 73.772C65.7102 73.54 65.3182 73.212 65.0302 72.788L65.9182 72.02C66.0942 72.348 66.3462 72.612 66.6742 72.812C67.0102 73.004 67.4102 73.1 67.8742 73.1C68.2422 73.1 68.5342 73.036 68.7502 72.908C68.9662 72.78 69.0742 72.6 69.0742 72.368C69.0742 72.216 69.0222 72.084 68.9182 71.972C68.8222 71.852 68.6342 71.76 68.3542 71.696L67.0942 71.432C66.4542 71.304 65.9982 71.1 65.7262 70.82C65.4542 70.532 65.3182 70.168 65.3182 69.728C65.3182 69.4 65.4142 69.096 65.6062 68.816C65.7982 68.536 66.0782 68.312 66.4462 68.144C66.8222 67.968 67.2702 67.88 67.7902 67.88C68.3902 67.88 68.9022 67.988 69.3262 68.204C69.7502 68.412 70.0742 68.712 70.2982 69.104L69.4102 69.848C69.2582 69.528 69.0342 69.292 68.7382 69.14C68.4422 68.98 68.1342 68.9 67.8142 68.9C67.5582 68.9 67.3382 68.932 67.1542 68.996C66.9702 69.06 66.8302 69.148 66.7342 69.26C66.6382 69.372 66.5902 69.504 66.5902 69.656C66.5902 69.816 66.6502 69.956 66.7702 70.076C66.8902 70.196 67.1062 70.288 67.4182 70.352L68.7862 70.64C69.3622 70.752 69.7662 70.944 69.9982 71.216C70.2382 71.48 70.3582 71.804 70.3582 72.188C70.3582 72.572 70.2582 72.912 70.0582 73.208C69.8582 73.496 69.5702 73.72 69.1942 73.88C68.8182 74.04 68.3702 74.12 67.8502 74.12ZM74.5501 74.12C73.9501 74.12 73.4221 73.996 72.9661 73.748C72.5101 73.5 72.1541 73.144 71.8981 72.68C71.6501 72.208 71.5261 71.648 71.5261 71C71.5261 70.352 71.6501 69.796 71.8981 69.332C72.1541 68.86 72.5061 68.5 72.9541 68.252C73.4021 68.004 73.9101 67.88 74.4781 67.88C75.0621 67.88 75.5581 68 75.9661 68.24C76.3741 68.48 76.6861 68.808 76.9021 69.224C77.1181 69.64 77.2261 70.112 77.2261 70.64C77.2261 70.784 77.2221 70.92 77.2141 71.048C77.2061 71.176 77.1941 71.288 77.1781 71.384H72.3541V70.4H76.6141L75.9781 70.592C75.9781 70.048 75.8421 69.632 75.5701 69.344C75.2981 69.048 74.9261 68.9 74.4541 68.9C74.1101 68.9 73.8101 68.98 73.5541 69.14C73.2981 69.3 73.1021 69.54 72.9661 69.86C72.8301 70.172 72.7621 70.556 72.7621 71.012C72.7621 71.46 72.8341 71.84 72.9781 72.152C73.1221 72.464 73.3261 72.7 73.5901 72.86C73.8541 73.02 74.1661 73.1 74.5261 73.1C74.9261 73.1 75.2501 73.024 75.4981 72.872C75.7461 72.72 75.9421 72.508 76.0861 72.236L77.1061 72.716C76.9621 73.004 76.7661 73.256 76.5181 73.472C76.2781 73.68 75.9901 73.84 75.6541 73.952C75.3181 74.064 74.9501 74.12 74.5501 74.12ZM40.6 81.88C41.184 81.88 41.7 82.004 42.148 82.252C42.596 82.5 42.944 82.86 43.192 83.332C43.448 83.796 43.576 84.352 43.576 85C43.576 85.648 43.448 86.208 43.192 86.68C42.944 87.144 42.596 87.5 42.148 87.748C41.7 87.996 41.184 88.12 40.6 88.12C40.016 88.12 39.5 87.996 39.052 87.748C38.604 87.5 38.252 87.144 37.996 86.68C37.74 86.208 37.612 85.648 37.612 85C37.612 84.352 37.74 83.796 37.996 83.332C38.252 82.86 38.604 82.5 39.052 82.252C39.5 82.004 40.016 81.88 40.6 81.88ZM40.6 82.888C40.24 82.888 39.932 82.972 39.676 83.14C39.428 83.3 39.236 83.536 39.1 83.848C38.964 84.16 38.896 84.544 38.896 85C38.896 85.448 38.964 85.832 39.1 86.152C39.236 86.464 39.428 86.704 39.676 86.872C39.932 87.032 40.24 87.112 40.6 87.112C40.96 87.112 41.264 87.032 41.512 86.872C41.76 86.704 41.952 86.464 42.088 86.152C42.224 85.832 42.292 85.448 42.292 85C42.292 84.544 42.224 84.16 42.088 83.848C41.952 83.536 41.76 83.3 41.512 83.14C41.264 82.972 40.96 82.888 40.6 82.888ZM49.1042 82H50.4482L48.0602 88H46.6562L44.2562 82H45.6602L47.3642 86.884L49.1042 82ZM54.1477 88.12C53.5477 88.12 53.0197 87.996 52.5637 87.748C52.1077 87.5 51.7517 87.144 51.4957 86.68C51.2477 86.208 51.1237 85.648 51.1237 85C51.1237 84.352 51.2477 83.796 51.4957 83.332C51.7517 82.86 52.1037 82.5 52.5517 82.252C52.9997 82.004 53.5077 81.88 54.0757 81.88C54.6597 81.88 55.1557 82 55.5637 82.24C55.9717 82.48 56.2837 82.808 56.4997 83.224C56.7157 83.64 56.8237 84.112 56.8237 84.64C56.8237 84.784 56.8197 84.92 56.8117 85.048C56.8037 85.176 56.7917 85.288 56.7757 85.384H51.9517V84.4H56.2117L55.5757 84.592C55.5757 84.048 55.4397 83.632 55.1677 83.344C54.8957 83.048 54.5237 82.9 54.0517 82.9C53.7077 82.9 53.4077 82.98 53.1517 83.14C52.8957 83.3 52.6997 83.54 52.5637 83.86C52.4277 84.172 52.3597 84.556 52.3597 85.012C52.3597 85.46 52.4317 85.84 52.5757 86.152C52.7197 86.464 52.9237 86.7 53.1877 86.86C53.4517 87.02 53.7637 87.1 54.1237 87.1C54.5237 87.1 54.8477 87.024 55.0957 86.872C55.3437 86.72 55.5397 86.508 55.6837 86.236L56.7037 86.716C56.5597 87.004 56.3637 87.256 56.1157 87.472C55.8757 87.68 55.5877 87.84 55.2517 87.952C54.9157 88.064 54.5477 88.12 54.1477 88.12ZM58.4452 88V82H59.5372L59.6572 83.08C59.8172 82.688 60.0532 82.392 60.3652 82.192C60.6852 81.984 61.0772 81.88 61.5412 81.88C61.6612 81.88 61.7812 81.892 61.9012 81.916C62.0212 81.932 62.1212 81.96 62.2012 82L62.0212 83.128C61.9332 83.096 61.8332 83.072 61.7212 83.056C61.6172 83.032 61.4732 83.02 61.2892 83.02C61.0412 83.02 60.7972 83.088 60.5572 83.224C60.3172 83.352 60.1172 83.548 59.9572 83.812C59.8052 84.076 59.7292 84.412 59.7292 84.82V88H58.4452ZM67.362 82H68.706L66.318 88H64.914L62.514 82H63.918L65.622 86.884L67.362 82ZM70.4487 80.992C70.1687 80.992 69.9527 80.924 69.8007 80.788C69.6567 80.644 69.5847 80.444 69.5847 80.188C69.5847 79.932 69.6567 79.736 69.8007 79.6C69.9527 79.464 70.1687 79.396 70.4487 79.396C70.7207 79.396 70.9287 79.464 71.0727 79.6C71.2247 79.736 71.3007 79.932 71.3007 80.188C71.3007 80.444 71.2247 80.644 71.0727 80.788C70.9287 80.924 70.7207 80.992 70.4487 80.992ZM71.0847 82V88H69.8007V82H71.0847ZM75.7337 88.12C75.1337 88.12 74.6057 87.996 74.1497 87.748C73.6937 87.5 73.3377 87.144 73.0817 86.68C72.8337 86.208 72.7097 85.648 72.7097 85C72.7097 84.352 72.8337 83.796 73.0817 83.332C73.3377 82.86 73.6897 82.5 74.1377 82.252C74.5857 82.004 75.0937 81.88 75.6617 81.88C76.2457 81.88 76.7417 82 77.1497 82.24C77.5577 82.48 77.8697 82.808 78.0857 83.224C78.3017 83.64 78.4097 84.112 78.4097 84.64C78.4097 84.784 78.4057 84.92 78.3977 85.048C78.3897 85.176 78.3777 85.288 78.3617 85.384H73.5377V84.4H77.7977L77.1617 84.592C77.1617 84.048 77.0257 83.632 76.7537 83.344C76.4817 83.048 76.1097 82.9 75.6377 82.9C75.2937 82.9 74.9937 82.98 74.7377 83.14C74.4817 83.3 74.2857 83.54 74.1497 83.86C74.0137 84.172 73.9457 84.556 73.9457 85.012C73.9457 85.46 74.0177 85.84 74.1617 86.152C74.3057 86.464 74.5097 86.7 74.7737 86.86C75.0377 87.02 75.3497 87.1 75.7097 87.1C76.1097 87.1 76.4337 87.024 76.6817 86.872C76.9297 86.72 77.1257 86.508 77.2697 86.236L78.2897 86.716C78.1457 87.004 77.9497 87.256 77.7017 87.472C77.4617 87.68 77.1737 87.84 76.8377 87.952C76.5017 88.064 76.1337 88.12 75.7337 88.12ZM87.5108 82H88.9028L86.8868 88H85.4828L83.9708 83.548L82.5428 88H81.1388L79.1348 82H80.5148L81.8828 86.74L83.3708 82H84.6548L86.1428 86.74L87.5108 82Z" fill="#101828"/>
<path d="M138.188 77.136V83.208H137.072V77.136H138.188ZM140.576 79.632V80.7H134.672V79.632H140.576ZM143.584 84V78.564C143.584 78.404 143.584 78.24 143.584 78.072C143.592 77.896 143.6 77.712 143.608 77.52C143.336 77.784 143.024 78.012 142.672 78.204C142.328 78.388 141.972 78.52 141.604 78.6L141.364 77.484C141.532 77.46 141.728 77.404 141.952 77.316C142.176 77.228 142.408 77.116 142.648 76.98C142.888 76.844 143.108 76.7 143.308 76.548C143.508 76.388 143.664 76.232 143.776 76.08H144.856V84H143.584ZM149.421 84.12C148.717 84.12 148.137 83.968 147.681 83.664C147.233 83.36 146.877 82.92 146.613 82.344L147.813 81.72C147.933 82.104 148.113 82.42 148.353 82.668C148.601 82.908 148.965 83.028 149.445 83.028C149.781 83.028 150.065 82.968 150.297 82.848C150.537 82.72 150.721 82.544 150.849 82.32C150.977 82.088 151.041 81.812 151.041 81.492C151.041 81.156 150.981 80.876 150.861 80.652C150.741 80.428 150.569 80.26 150.345 80.148C150.121 80.028 149.841 79.968 149.505 79.968C149.273 79.968 149.057 79.992 148.857 80.04C148.657 80.088 148.477 80.164 148.317 80.268C148.157 80.364 148.017 80.492 147.897 80.652L146.841 80.448L147.321 76.08H151.929V77.184H148.341L148.053 79.416L148.029 79.548H148.053C148.237 79.348 148.473 79.192 148.761 79.08C149.057 78.968 149.405 78.912 149.805 78.912C150.317 78.912 150.757 79.02 151.125 79.236C151.493 79.444 151.781 79.736 151.989 80.112C152.197 80.488 152.301 80.924 152.301 81.42C152.301 81.852 152.229 82.236 152.085 82.572C151.941 82.908 151.737 83.192 151.473 83.424C151.209 83.656 150.901 83.832 150.549 83.952C150.205 84.064 149.829 84.12 149.421 84.12ZM155.097 84L160.281 76.08H161.385L156.213 84H155.097ZM155.409 75.96C155.817 75.96 156.169 76.052 156.465 76.236C156.769 76.42 157.001 76.676 157.161 77.004C157.329 77.332 157.413 77.72 157.413 78.168C157.413 78.608 157.329 78.996 157.161 79.332C157.001 79.66 156.769 79.916 156.465 80.1C156.169 80.284 155.817 80.376 155.409 80.376C155.009 80.376 154.657 80.284 154.353 80.1C154.049 79.916 153.813 79.66 153.645 79.332C153.485 78.996 153.405 78.608 153.405 78.168C153.405 77.72 153.485 77.332 153.645 77.004C153.813 76.676 154.049 76.42 154.353 76.236C154.657 76.052 155.009 75.96 155.409 75.96ZM155.409 76.896C155.209 76.896 155.037 76.948 154.893 77.052C154.749 77.148 154.641 77.292 154.569 77.484C154.497 77.668 154.461 77.896 154.461 78.168C154.461 78.432 154.497 78.66 154.569 78.852C154.641 79.044 154.749 79.188 154.893 79.284C155.037 79.38 155.209 79.428 155.409 79.428C155.617 79.428 155.793 79.38 155.937 79.284C156.081 79.188 156.189 79.044 156.261 78.852C156.333 78.66 156.369 78.432 156.369 78.168C156.369 77.896 156.333 77.668 156.261 77.484C156.189 77.292 156.081 77.148 155.937 77.052C155.793 76.948 155.617 76.896 155.409 76.896ZM161.073 79.704C161.481 79.704 161.833 79.796 162.129 79.98C162.433 80.164 162.665 80.424 162.825 80.76C162.993 81.088 163.077 81.472 163.077 81.912C163.077 82.36 162.993 82.748 162.825 83.076C162.665 83.404 162.433 83.66 162.129 83.844C161.833 84.028 161.481 84.12 161.073 84.12C160.673 84.12 160.321 84.028 160.017 83.844C159.713 83.66 159.477 83.404 159.309 83.076C159.149 82.748 159.069 82.36 159.069 81.912C159.069 81.472 159.149 81.088 159.309 80.76C159.477 80.424 159.713 80.164 160.017 79.98C160.321 79.796 160.673 79.704 161.073 79.704ZM161.073 80.652C160.873 80.652 160.701 80.7 160.557 80.796C160.413 80.892 160.305 81.036 160.233 81.228C160.161 81.412 160.125 81.64 160.125 81.912C160.125 82.176 160.161 82.404 160.233 82.596C160.305 82.788 160.413 82.936 160.557 83.04C160.701 83.136 160.873 83.184 161.073 83.184C161.281 83.184 161.457 83.136 161.601 83.04C161.745 82.936 161.853 82.788 161.925 82.596C161.997 82.404 162.033 82.176 162.033 81.912C162.033 81.648 161.997 81.42 161.925 81.228C161.853 81.036 161.745 80.892 161.601 80.796C161.457 80.7 161.281 80.652 161.073 80.652Z" fill="#101828"/>
<defs>
<filter id="filter0_d_2_473" x="0" y="0" width="250" height="207" filterUnits="userSpaceOnUse" color-interpolation-filters="sRGB">
<feFlood flood-opacity="0" result="BackgroundImageFix"/>
<feColorMatrix in="SourceAlpha" type="matrix" values="0 0 0 0 0 0 0 0 0 0 0 0 0 0 0 0 0 0 127 0" result="hardAlpha"/>
<feMorphology radius="2" operator="dilate" in="SourceAlpha" result="effect1_dropShadow_2_473"/>
<feOffset/>
<feGaussianBlur stdDeviation="10"/>
<feComposite in2="hardAlpha" operator="out"/>
<feColorMatrix type="matrix" values="0 0 0 0 0.566667 0 0 0 0 0.566667 0 0 0 0 0.566667 0 0 0 0.12 0"/>
<feBlend mode="normal" in2="BackgroundImageFix" result="effect1_dropShadow_2_473"/>
<feBlend mode="normal" in="SourceGraphic" in2="effect1_dropShadow_2_473" result="shape"/>
</filter>
</defs>
</svg>
